<svg xmlns="http://www.w3.org/2000/svg" viewBox="0 0 512 512" width="512" height="512">
  <defs>
    <linearGradient id="g" x1="0%" y1="0%" x2="100%" y2="100%">
      <stop offset="0%" stop-color="#e8829a"/>
      <stop offset="50%" stop-color="#c3b1e1"/>
      <stop offset="100%" stop-color="#f7d970"/>
    </linearGradient>
  </defs>
  <!-- T - Bold Serif -->
  <path d="M56 100 L260 100 L260 160 L188 160 L188 390 L128 390 L128 160 L56 160 Z" fill="url(#g)"/>
  <!-- D - Italic Serif with slant -->
  <path d="M280 100 L375 100 C450 100 490 155 490 230 L490 270 C490 345 450 390 375 390 L280 390 Z
           M336 156 L336 334 L370 334 C415 334 430 305 430 270 L430 230 C430 190 415 156 370 156 Z" fill="url(#g)" transform="skewX(-6) translate(40, 0)"/>
  <!-- Accent dot -->
  <circle cx="265" cy="430" r="13" fill="#c3b1e1"/>
</svg>
